<?xml version="1.0" encoding="UTF-8"?>
<svg xmlns="http://www.w3.org/2000/svg" xmlns:xlink="http://www.w3.org/1999/xlink" width="0" height="0">
<defs>
<symbol fill="none" id="icons/chip-logo"><path fill="#1F1E25" d="M47.76 19h-3.02v-5.52c-.84.293-1.613.513-2.32.66-.693.147-1.393.22-2.1.22-1.333 0-2.38-.32-3.14-.96-.747-.653-1.12-1.58-1.12-2.78v-5.9h3.02v5.04c0 .693.16 1.213.48 1.56.32.347.86.52 1.62.52.56 0 1.12-.06 1.68-.18.56-.12 1.187-.3 1.88-.54v-6.4h3.02V19Zm6.33-10.92V19h-2.98V8.08h2.98ZM52.61 3.8c.44 0 .82.107 1.14.32.32.2.48.58.48 1.14 0 .547-.16.927-.48 1.14-.32.213-.7.32-1.14.32-.453 0-.84-.107-1.16-.32-.306-.213-.46-.593-.46-1.14 0-.56.154-.94.46-1.14.32-.213.707-.32 1.16-.32Zm14.514 4.28V19h-2.98v-8.68h-3.96V19h-2.98V8.08h9.92ZM87.174 19h-3.02v-5.52c-.84.293-1.613.513-2.32.66-.693.147-1.393.22-2.1.22-1.333 0-2.38-.32-3.14-.96-.747-.653-1.12-1.58-1.12-2.78v-5.9h3.02v5.04c0 .693.16 1.213.48 1.56.32.347.86.52 1.62.52.56 0 1.12-.06 1.68-.18.56-.12 1.187-.3 1.88-.54v-6.4h3.02V19Zm7.85-11.12c1.014 0 1.88.193 2.6.58a4.05 4.05 0 0 1 1.7 1.68c.4.733.6 1.633.6 2.7v1.44h-7.04c.028.84.274 1.5.74 1.98.48.48 1.14.72 1.98.72.707 0 1.347-.067 1.92-.2a9.732 9.732 0 0 0 1.78-.66v2.3c-.532.267-1.1.46-1.7.58-.586.133-1.3.2-2.14.2-1.093 0-2.06-.2-2.9-.6a4.593 4.593 0 0 1-1.98-1.86c-.48-.827-.72-1.867-.72-3.12 0-1.28.214-2.34.64-3.18.44-.853 1.047-1.493 1.82-1.92.774-.427 1.674-.64 2.7-.64Zm.02 2.12c-.572 0-1.052.187-1.44.56-.373.373-.593.953-.66 1.74h4.18c0-.44-.08-.833-.24-1.18a1.785 1.785 0 0 0-.68-.82c-.306-.2-.692-.3-1.16-.3Zm10.277-1.92v4.2h4.16v-4.2h2.98V19h-2.98v-4.5h-4.16V19h-2.98V8.08h2.98Zm20.082 0v8.74h1.6v6.1h-2.68V19h-7.34v3.92h-2.68v-6.1h.92c.48-.733.887-1.567 1.22-2.5.334-.947.6-1.953.8-3.02.2-1.067.347-2.14.44-3.22h7.72Zm-5.22 2.24c-.106.8-.24 1.58-.4 2.34-.16.747-.36 1.467-.6 2.16a13.07 13.07 0 0 1-.84 2h4.08v-6.5h-2.24Zm24.202-2.24-4.02 5.24 4.4 5.68h-3.18l-4.16-5.54V19h-2.78v-5.54l-4.16 5.54h-3.18l4.4-5.68-4.02-5.24h3.08l3.88 5.3v-5.3h2.78v5.3l3.88-5.3h3.08Z"></path><g clip-path="url(#a)"><rect width="21" height="21" x="1" y="1" fill="#595769" rx="4"></rect><path fill="url(#b)" d="M16.37 0v4.833a3.84 3.84 0 0 0-2.486 3.07h-4.77a3.84 3.84 0 0 0-2.486-3.07V0H16.37Zm.818 17.1h-.001c-.02-.004-.039-.01-.059-.013a2.638 2.638 0 0 1-2.032-2.55V8.463c0-.07.003-.142.01-.212 0-.007 0-.014.002-.021a2.634 2.634 0 0 1 2.022-2.318l.038-.008.022-.005c.17-.035.345-.053.524-.053H23v11.307h-5.285a2.65 2.65 0 0 1-.526-.053ZM5.81 5.9l.02.005.04.01a2.637 2.637 0 0 1 2.034 2.55v6.074c0 .07-.003.142-.01.212 0 .007 0 .014-.002.021a2.635 2.635 0 0 1-2.02 2.318c-.02.004-.038.01-.058.013h-.002c-.17.036-.347.053-.526.053H0V5.845h5.285c.18 0 .355.018.524.054h.001Zm3.346 3.257h4.688v4.688H9.156V9.156ZM0 4.44A4.444 4.444 0 0 1 4.44 0h.937v4.596l-.091-.002H0V4.44ZM4.44 23A4.445 4.445 0 0 1 0 18.56v-.153h5.285l.09-.003V23H4.44h.001Zm2.19 0v-4.833a3.84 3.84 0 0 0 2.486-3.07h4.77a3.842 3.842 0 0 0 2.486 3.07V23H6.63ZM23 18.56A4.445 4.445 0 0 1 18.56 23h-.937v-4.596c.03 0 .06.003.091.003H23v.153H23ZM17.715 4.592l-.09.003V0h.936a4.445 4.445 0 0 1 4.44 4.44v.154h-5.285v-.002Z"></path></g><defs><linearGradient id="b" x1="2.5" x2="20.5" y1="1.5" y2="23" gradientUnits="userSpaceOnUse"><stop stop-color="#EC9F23"></stop><stop offset=".304" stop-color="#FEE2B2"></stop><stop offset=".47" stop-color="#FEE2B2"></stop><stop offset="1" stop-color="#DBA02E"></stop></linearGradient><clipPath id="a"><path fill="#fff" d="M0 0h23v23H0z"></path></clipPath></defs></symbol>
<symbol viewBox="0 0 9 16" fill="none" id="icons/facebook-icon">
<path d="M6 9.2H8.14286L9 6H6V4.4C6 3.576 6 2.8 7.71429 2.8H9V0.112C8.72057 0.0776001 7.66543 0 6.55114 0C4.224 0 2.57143 1.3256 2.57143 3.76V6H0V9.2H2.57143V16H6V9.2Z" fill="#1F1E25"></path>
</symbol>
<symbol viewBox="0 0 16 16" fill="none" id="icons/handset">
<path d="M15.9991 11.9282V15.0712C15.9992 15.2962 15.914 15.5129 15.7605 15.6775C15.6071 15.8422 15.397 15.9425 15.1725 15.9582C14.7841 15.9849 14.4668 15.9991 14.2214 15.9991C6.36676 15.9991 0 9.63235 0 1.77768C0 1.53236 0.0133326 1.21504 0.0408866 0.826621C0.056639 0.602139 0.156952 0.391988 0.321585 0.238572C0.486218 0.0851569 0.702915 -0.000101713 0.927949 2.28058e-07H4.07089C4.18114 -0.000111402 4.28749 0.0407613 4.36929 0.114678C4.4511 0.188596 4.5025 0.29028 4.51353 0.399978C4.53397 0.604411 4.55264 0.767069 4.57041 0.890617C4.74706 2.12337 5.10905 3.32233 5.64413 4.44687C5.72857 4.62463 5.67346 4.83706 5.51347 4.95084L3.59536 6.32143C4.76814 9.05412 6.94588 11.2319 9.67857 12.4046L11.0474 10.4901C11.1033 10.4119 11.185 10.3558 11.278 10.3316C11.3711 10.3074 11.4697 10.3166 11.5567 10.3576C12.6811 10.8917 13.8797 11.2528 15.1121 11.4287C15.2356 11.4465 15.3983 11.466 15.6009 11.4856C15.7105 11.4968 15.8119 11.5483 15.8857 11.6301C15.9594 11.7119 16.0001 11.8181 16 11.9282H15.9991Z" fill="#1F1E25"></path>
</symbol>
<symbol viewBox="0 0 16 16" fill="none" id="icons/instagram-icon">
<path d="M8 0C10.1736 0 10.4448 0.00799995 11.2976 0.048C12.1496 0.088 12.7296 0.2216 13.24 0.42C13.768 0.6232 14.2128 0.8984 14.6576 1.3424C15.0644 1.74232 15.3792 2.22607 15.58 2.76C15.7776 3.2696 15.912 3.8504 15.952 4.7024C15.9896 5.5552 16 5.8264 16 8C16 10.1736 15.992 10.4448 15.952 11.2976C15.912 12.1496 15.7776 12.7296 15.58 13.24C15.3797 13.7742 15.0649 14.2581 14.6576 14.6576C14.2576 15.0643 13.7738 15.379 13.24 15.58C12.7304 15.7776 12.1496 15.912 11.2976 15.952C10.4448 15.9896 10.1736 16 8 16C5.8264 16 5.5552 15.992 4.7024 15.952C3.8504 15.912 3.2704 15.7776 2.76 15.58C2.22586 15.3796 1.74202 15.0648 1.3424 14.6576C0.935525 14.2577 0.620745 13.774 0.42 13.24C0.2216 12.7304 0.088 12.1496 0.048 11.2976C0.0104 10.4448 0 10.1736 0 8C0 5.8264 0.00799995 5.5552 0.048 4.7024C0.088 3.8496 0.2216 3.2704 0.42 2.76C0.620189 2.22574 0.935043 1.74186 1.3424 1.3424C1.74214 0.935385 2.22594 0.620583 2.76 0.42C3.2704 0.2216 3.8496 0.088 4.7024 0.048C5.5552 0.0104 5.8264 0 8 0ZM8 4C6.93913 4 5.92172 4.42143 5.17157 5.17157C4.42143 5.92172 4 6.93913 4 8C4 9.06087 4.42143 10.0783 5.17157 10.8284C5.92172 11.5786 6.93913 12 8 12C9.06087 12 10.0783 11.5786 10.8284 10.8284C11.5786 10.0783 12 9.06087 12 8C12 6.93913 11.5786 5.92172 10.8284 5.17157C10.0783 4.42143 9.06087 4 8 4ZM13.2 3.8C13.2 3.53478 13.0946 3.28043 12.9071 3.09289C12.7196 2.90536 12.4652 2.8 12.2 2.8C11.9348 2.8 11.6804 2.90536 11.4929 3.09289C11.3054 3.28043 11.2 3.53478 11.2 3.8C11.2 4.06522 11.3054 4.31957 11.4929 4.50711C11.6804 4.69464 11.9348 4.8 12.2 4.8C12.4652 4.8 12.7196 4.69464 12.9071 4.50711C13.0946 4.31957 13.2 4.06522 13.2 3.8ZM8 5.6C8.63652 5.6 9.24697 5.85286 9.69706 6.30294C10.1471 6.75303 10.4 7.36348 10.4 8C10.4 8.63652 10.1471 9.24697 9.69706 9.69706C9.24697 10.1471 8.63652 10.4 8 10.4C7.36348 10.4 6.75303 10.1471 6.30294 9.69706C5.85286 9.24697 5.6 8.63652 5.6 8C5.6 7.36348 5.85286 6.75303 6.30294 6.30294C6.75303 5.85286 7.36348 5.6 8 5.6Z" fill="#1F1E25"></path>
</symbol>
<symbol fill="none" id="icons/login-icon"><path fill="#1F1E25" d="M2.222 14.3h2.222v5.5h13.334V2.2H4.444v5.5H2.222V1.1c0-.292.117-.572.326-.778.208-.206.49-.322.785-.322H18.89c.295 0 .577.116.786.322.208.206.325.486.325.778v19.8c0 .292-.117.572-.325.778a1.117 1.117 0 0 1-.786.322H3.333c-.294 0-.577-.116-.785-.322a1.095 1.095 0 0 1-.326-.778v-6.6ZM8.89 9.9V6.6l5.555 4.4-5.555 4.4v-3.3H0V9.9h8.889Z"></path></symbol>
<symbol viewBox="0 0 10 16" fill="none" id="icons/smartphone">
<path d="M8.8373 0H1.1627C0.523313 0 0 0.485943 0 1.08069V14.9189C0 15.5136 0.523313 16 1.1627 16H8.8373C9.47669 16 10 15.5145 10 14.9193V1.08069C10 0.485943 9.47669 0 8.8373 0ZM3.77238 0.778971H6.22762C6.30533 0.778971 6.36829 0.837486 6.36829 0.910171C6.36829 0.9824 6.30533 1.04091 6.22762 1.04091H3.77238C3.69467 1.04091 3.63171 0.9824 3.63171 0.910171C3.63171 0.837486 3.69467 0.778971 3.77238 0.778971ZM5 15.4597C4.67883 15.4597 4.41865 15.2178 4.41865 14.9189C4.41865 14.6199 4.67883 14.3785 5 14.3785C5.32117 14.3785 5.58135 14.6199 5.58135 14.9189C5.58135 15.2178 5.32117 15.4597 5 15.4597ZM9.19093 14H0.809069V1.71383H9.19093V14Z" fill="#1F1E25"></path>
</symbol>
<symbol viewBox="0 0 16 13" fill="none" id="icons/twitter-icon">
<path d="M15.9992 1.54324C15.4 1.80812 14.7645 1.98209 14.1138 2.05937C14.7996 1.64947 15.313 1.00438 15.5581 0.244297C14.9144 0.627078 14.2088 0.895338 13.4733 1.04045C12.9793 0.512227 12.3245 0.161908 11.6106 0.0439529C10.8968 -0.0740019 10.164 0.047017 9.52611 0.388195C8.88822 0.729374 8.38099 1.2716 8.08329 1.93057C7.78559 2.58954 7.71409 3.32833 7.87991 4.0321C6.57465 3.96673 5.29775 3.62777 4.13209 3.03724C2.96644 2.4467 1.93809 1.6178 1.11381 0.604331C0.822049 1.10512 0.668725 1.67441 0.669545 2.2539C0.669545 3.39126 1.24882 4.39606 2.12951 4.98435C1.60833 4.96795 1.09861 4.8273 0.642857 4.57411V4.6149C0.643014 5.37238 0.905313 6.1065 1.38528 6.69279C1.86525 7.27907 2.53335 7.68144 3.27629 7.83167C2.79248 7.96269 2.28517 7.98201 1.79278 7.88815C2.00225 8.54016 2.41052 9.11038 2.96043 9.51897C3.51034 9.92757 4.17436 10.1541 4.8595 10.1668C4.17856 10.7012 3.39888 11.0963 2.56506 11.3294C1.73123 11.5625 0.859598 11.6291 0 11.5253C1.50055 12.4897 3.24733 13.0017 5.0314 13C11.0699 13 14.3721 8.0011 14.3721 3.66579C14.3721 3.5246 14.3681 3.38184 14.3619 3.24222C15.0046 2.778 15.5593 2.20293 16 1.54403L15.9992 1.54324Z" fill="#1F1E25"></path>
</symbol>
<symbol viewBox="0 0 16 13" fill="none" id="icons/youtube-icon">
<path d="M15.6344 2.02963C16 3.4775 16 6.5 16 6.5C16 6.5 16 9.5225 15.6344 10.9704C15.4312 11.7707 14.8368 12.4004 14.084 12.6132C12.7168 13 8 13 8 13C8 13 3.2856 13 1.916 12.6132C1.16 12.3971 0.5664 11.7683 0.3656 10.9704C2.38419e-08 9.5225 0 6.5 0 6.5C0 6.5 2.38419e-08 3.4775 0.3656 2.02963C0.5688 1.22931 1.1632 0.599625 1.916 0.38675C3.2856 -1.45286e-07 8 0 8 0C8 0 12.7168 -1.45286e-07 14.084 0.38675C14.84 0.602875 15.4336 1.23175 15.6344 2.02963ZM6.4 9.34375L11.2 6.5L6.4 3.65625V9.34375Z" fill="#1F1E25"></path>
</symbol>
</defs>
</svg>
